PathFileType	4	(X/Y/Z)	S01_0013_Gait_markers.trc
DataRate	CameraRate	NumFrames	NumMarkers	Units	OrigDataRate	OrigDataStartFrame	OrigNumFrames
250.000000	250.000000	4	54	mm	250.000000	261	349
Frame#	Time	HEAD_ANT			R_HEAD			L_HEAD			C7			R_BACK			L_BACK			STERNUM			R_ACROMION			R_HUM_PROX			R_HUM_ANT			R_HUM_POST			R_ELBOW_LAT			R_ELBOW_MED			R_FOREARM			R_WIRST_LAT			R_WRITS_MED			R_HAND			L_ACROMION			L_HUM_PROX			L_HUM_ANT			L_HUM_POST			L_ELBOW_LAT			L_ELBOW_MED			L_FOREARM			L_WRIST_LAT			L_WIRST_MED			L_HAND			R_ILIAC			SACRUM			L_ILIAC			R_GTROCH			R_THIGH__1			R_THIGH_2			R_THIGH_3			R_THIGH_4			R_SHANK_1			R_SHANK_2			R_SHANK_3			R_SHANK_4			R_HEEL			R_FOOT_LAT			R_FOOT_MED			L_GTROCH			L_THIGH_1			L_THIGH_2			L_THIGH_3			L_THIGH_4			L_SHANK_1			L_SHANK_2			L_SHANK_3			L_SHANK_4			L_HEEL			L_FOOT_LAT			L_FOOT_MED			
		X1	Y1	Z1	X2	Y2	Z2	X3	Y3	Z3	X4	Y4	Z4	X5	Y5	Z5	X6	Y6	Z6	X7	Y7	Z7	X8	Y8	Z8	X9	Y9	Z9	X10	Y10	Z10	X11	Y11	Z11	X12	Y12	Z12	X13	Y13	Z13	X14	Y14	Z14	X15	Y15	Z15	X16	Y16	Z16	X17	Y17	Z17	X18	Y18	Z18	X19	Y19	Z19	X20	Y20	Z20	X21	Y21	Z21	X22	Y22	Z22	X23	Y23	Z23	X24	Y24	Z24	X25	Y25	Z25	X26	Y26	Z26	X27	Y27	Z27	X28	Y28	Z28	X29	Y29	Z29	X30	Y30	Z30	X31	Y31	Z31	X32	Y32	Z32	X33	Y33	Z33	X34	Y34	Z34	X35	Y35	Z35	X36	Y36	Z36	X37	Y37	Z37	X38	Y38	Z38	X39	Y39	Z39	X40	Y40	Z40	X41	Y41	Z41	X42	Y42	Z42	X43	Y43	Z43	X44	Y44	Z44	X45	Y45	Z45	X46	Y46	Z46	X47	Y47	Z47	X48	Y48	Z48	X49	Y49	Z49	X50	Y50	Z50	X51	Y51	Z51	X52	Y52	Z52	X53	Y53	Z53	X54	Y54	Z54	

262	1.044	1505.388061523438	1738.751831054688	-314.6796569824215	1446.531005859375	1685.151977539062	-238.9129791259762	1446.491088867188	1693.6484375	-387.0608520507809	1309.23681640625	1518.21826171875	-324.0951538085934	1236.667602539062	1321.657958984375	-254.9149780273435	1241.77197265625	1323.501098632812	-397.4118957519528	1490.375854492188	1359.113647460938	-317.8202209472653	1381.69970703125	1473.114624023438	-148.0502624511715	1330.419921875	1316.478271484375	-56.1085548400876	1386.975463867188	1228.624755859375	-43.39593505859348	1266.137939453125	1236.61328125	-47.95092391967746	1306.822387695312	1128.928100585938	-32.0312004089353	1293.254150390625	1122.1943359375	-114.0013046264646	1402.176147460938	943.6375732421875	-13.09801101684549	1443.884033203125	875.8451538085938	-46.02661514282207	1372.035034179688	854.9691772460938	-15.92493057250958	1437.73583984375	790.238037109375	12.61016845703143	1396.067016601562	1473.544311523438	-486.1489868164059	1393.829467773438	1306.992553710938	-582.5669555664059	1461.339111328125	1231.711303710938	-573.0675659179685	1344.949829101562	1225.094482421875	-614.2758178710935	1413.200561523438	1125.639770507813	-613.999328613281	1354.710693359375	1113.71142578125	-562.8727416992185	1548.358032226562	979.3820800781251	-559.4728393554685	1581.348754882812	931.3676757812501	-496.9721374511716	1555.314697265625	894.8347778320314	-561.077697753906	1639.300659179688	860.9830932617189	-530.158264160156	1394.094482421875	1074.958984375	-143.8380126953123	1260.490112304688	1042.295776367188	-305.3673706054685	1377.428466796875	1064.264282226562	-487.0688476562498	1362.209716796875	921.8042602539062	-123.0699234008787	1482.404174804688	654.4042358398438	-142.2571563720702	1532.041259765625	686.1525268554688	-139.6956634521483	1565.056030273438	588.5958862304688	-171.3906860351561	1501.623657226562	576.4205932617188	-162.0669708251952	1527.757690429688	359.2944335937501	-152.0815124511718	1584.735961914062	346.1048583984376	-167.3246307373046	1592.822387695312	261.4634094238282	-181.404556274414	1529.207275390625	258.6829833984376	-170.0244598388671	1522.57666015625	42.2768173217774	-250.4265594482422	1684.689086914062	36.72515487670902	-165.5945129394531	1734.326171875	60.74316024780279	-251.8983001708984	1336.504272460938	954.2836303710939	-486.0549011230466	1371.781372070312	662.1562500000001	-461.5662841796873	1322.738525390625	690.3197631835939	-476.876983642578	1291.344604492188	594.8452148437501	-441.965606689453	1353.998168945312	585.6365356445314	-435.7832031249999	1258.013793945312	327.6939697265626	-416.6473083496093	1197.76123046875	317.6361694335939	-418.8477478027343	1177.793212890625	234.8833007812501	-397.7467041015624	1241.036499023438	229.0220489501954	-388.6919250488281	1101.956665039062	59.80456161499031	-317.4115295410156	1272.84423828125	21.00200271606454	-389.9536437988281	1312.120239257812	27.18258857727057	-284.5493469238281	
263	1.048	1510.79638671875	1737.718994140625	-314.3864135742184	1451.289916992188	1683.664184570312	-238.6927642822262	1451.956787109375	1692.65087890625	-386.7049560546871	1314.455688476562	1517.27490234375	-323.8873901367184	1241.77880859375	1320.634643554688	-254.9403533935544	1246.914916992188	1322.427856445312	-397.3414001464841	1495.534545898438	1357.733276367188	-317.5348205566403	1387.011596679688	1471.91552734375	-148.0202941894528	1335.369506835938	1315.305419921875	-56.00832748413057	1392.021606445312	1227.342529296875	-43.39105224609348	1270.936767578125	1235.461669921875	-48.0211982727048	1311.75927734375	1127.766967773438	-32.02759170532202	1298.293212890625	1121.091430664062	-113.8905410766599	1406.585205078125	942.225830078125	-13.08035945892313	1448.246215820312	874.5655517578125	-45.76472854614239	1376.32666015625	853.7232666015625	-15.88928985595684	1441.840454101562	788.68994140625	12.75333595275896	1401.324096679688	1472.546875	-485.9352416992184	1399.179443359375	1306.0205078125	-582.4186401367184	1466.874267578125	1231.015625	-572.9733276367185	1350.489501953125	1224.187255859375	-614.286437988281	1419.028564453125	1124.66748046875	-613.8167724609373	1359.5439453125	1112.868774414063	-563.883850097656	1554.650390625	979.2073364257814	-558.9357299804685	1587.855834960938	931.6278686523439	-496.2662048339841	1562.010620117188	894.8287353515626	-560.3988647460935	1646.288818359375	861.4660644531251	-529.1710205078123	1399.501098632812	1073.83203125	-143.829895019531	1265.902465820312	1041.190185546875	-305.4743347167966	1382.755126953125	1063.333374023438	-487.0406494140623	1367.488647460938	920.7202758789062	-123.34366607666	1487.438110351562	653.0612182617188	-142.3082427978514	1536.845825195312	684.9688720703125	-139.4140319824217	1570.189453125	587.5543823242188	-171.3354187011717	1506.695678710938	575.1470947265625	-162.2083892822264	1536.59521484375	357.9137878417969	-152.5745239257812	1594.589111328125	346.3463745117188	-167.2217407226562	1604.155151367188	261.7285766601563	-181.8342742919921	1540.39794921875	257.9494018554688	-170.6548614501953	1538.345458984375	41.54132080078131	-252.7377624511719	1700.135498046875	38.03553009033207	-166.3121490478516	1749.773559570312	63.14144515991217	-252.205078125	1341.417114257812	953.4998168945314	-486.0045471191404	1374.711181640625	661.5764160156251	-461.881378173828	1325.707763671875	690.0091552734376	-477.237091064453	1293.737548828125	594.7191162109376	-441.995147705078	1356.718139648438	585.3287353515626	-436.1145935058593	1259.139404296875	327.6329956054689	-416.8572082519531	1198.74853515625	317.8941345214845	-418.7802124023437	1178.4716796875	235.2222137451173	-397.7735900878906	1241.716674804688	229.1136322021485	-388.6980590820312	1102.065063476562	60.53257369995124	-317.1420593261719	1272.704223632812	20.97351646423348	-389.8965454101562	1312.218994140625	27.20080375671393	-284.5736999511719	
264	1.052	1516.112548828125	1736.527709960938	-313.9962158203121	1456.755859375	1682.397094726562	-238.3404998779293	1457.1259765625	1691.53076171875	-386.3172912597652	1319.839111328125	1516.301879882812	-323.8314819335934	1246.886840820312	1319.598999023438	-254.9134368896482	1252.336303710938	1321.490966796875	-397.4633178710935	1500.809936523438	1356.731811523438	-317.4903259277341	1392.317626953125	1470.582763671875	-147.8726806640622	1340.53515625	1314.046508789062	-55.92309188842744	1397.044799804688	1226.081787109375	-43.27350234985325	1275.80322265625	1234.231811523438	-48.01576614379855	1316.4501953125	1126.6767578125	-32.15530395507788	1303.079223632812	1119.9052734375	-114.0059356689451	1411.072631835938	940.85595703125	-13.00375843048075	1452.66748046875	873.037841796875	-45.52542114257793	1380.610961914062	852.4483032226562	-15.85107612609844	1446.05908203125	787.201171875	12.8461465835573	1406.488525390625	1471.439453125	-485.8428955078122	1404.743041992188	1305.003295898438	-582.3047485351559	1472.461669921875	1230.064453125	-572.9152221679685	1356.135986328125	1223.1337890625	-613.9482421874998	1424.7314453125	1123.745239257813	-613.9901733398435	1365.173950195312	1111.905151367188	-564.0174560546873	1561.053344726562	978.9283447265626	-558.263000488281	1594.330444335938	931.7409057617189	-495.3808898925779	1568.716918945312	894.5778808593751	-559.3892822265623	1653.10693359375	861.7222900390626	-527.978820800781	1404.90087890625	1072.629028320312	-143.7277069091795	1271.360473632812	1040.046264648438	-305.4411010742185	1388.12451171875	1062.294311523438	-487.0919799804685	1372.909912109375	919.5051879882812	-123.6059875488279	1492.260986328125	651.696533203125	-142.1999206542967	1541.6328125	683.6455688476562	-139.4407806396483	1575.0380859375	586.2987670898438	-171.4494781494139	1511.814453125	573.9187622070312	-162.3397827148436	1545.572021484375	356.9519348144532	-152.711456298828	1603.6865234375	346.2637634277344	-167.5057525634765	1615.079345703125	261.9984130859376	-182.2287445068359	1551.580322265625	256.4354553222657	-171.9723052978515	1553.968627929688	40.90040206909185	-254.2347412109375	1715.366821289062	39.34065628051761	-167.0643615722656	1764.953979492188	65.82406616210943	-252.560562133789	1346.415161132812	952.7711181640626	-485.7896423339841	1377.569580078125	660.9056396484376	-462.2114257812498	1328.855712890625	689.7462158203126	-477.1871643066405	1296.286865234375	594.6707763671876	-442.1110229492186	1359.458862304688	584.8798828125001	-436.1025085449218	1259.947265625	327.3406066894532	-416.3958435058593	1199.896606445312	318.1219482421876	-418.7098083496093	1179.453369140625	235.6455993652345	-397.6235046386718	1242.724243164062	229.1684570312501	-388.5942993164062	1102.218627929688	61.37543106079109	-316.8395385742188	1272.525024414062	20.98620796203622	-389.7980346679688	1312.27685546875	27.18484115600592	-284.6620178222656	
265	1.056	1521.553588867188	1735.368774414062	-313.634857177734	1462.819213867188	1681.405029296875	-237.9168701171871	1462.553833007812	1690.366455078125	-386.028167724609	1325.1142578125	1515.093505859375	-323.6930236816403	1252.215576171875	1318.417602539062	-254.9756011962888	1257.59814453125	1320.455688476562	-397.3255615234372	1506.064575195312	1355.268798828125	-317.3369445800778	1397.490478515625	1469.3251953125	-147.5973968505856	1345.722412109375	1312.844970703125	-55.84335708618135	1401.98828125	1224.672607421875	-43.27140808105442	1280.9755859375	1232.963134765625	-47.99940872192355	1321.230834960938	1125.401489257812	-32.18623733520483	1308.587036132812	1118.489868164062	-114.0018920898435	1415.5673828125	939.4584350585938	-12.83049297332743	1456.838989257812	871.4559936523438	-44.98005294799786	1384.973754882812	851.0306396484375	-15.77359008789044	1450.238037109375	785.772216796875	13.0310249328615	1411.8046875	1470.324829101562	-485.5331726074215	1410.194213867188	1303.985107421875	-582.2133789062497	1477.921264648438	1229.1103515625	-572.7733764648435	1361.608520507812	1221.974853515625	-614.0812377929685	1430.550659179688	1122.801147460938	-613.9260253906248	1372.028564453125	1110.43212890625	-562.901184082031	1567.340942382812	978.6826782226564	-557.7181396484373	1600.684326171875	931.8887939453126	-494.7276611328123	1575.52294921875	894.2767333984376	-558.632873535156	1659.89501953125	861.9904785156251	-527.0130615234373	1410.291870117188	1071.457275390625	-143.8930511474607	1276.81201171875	1038.951049804688	-305.2616577148435	1393.391723632812	1061.179565429688	-487.2001342773435	1378.08544921875	918.29052734375	-123.7094573974607	1497.070434570312	650.3893432617188	-142.391632080078	1546.24951171875	682.3822631835938	-138.9738922119139	1580.129272460938	585.1203002929688	-171.3883056640624	1516.838134765625	572.7784423828125	-162.1831665039061	1554.315673828125	355.3587951660157	-153.3754577636718	1612.925537109375	346.5597229003907	-167.5723114013671	1625.85302734375	262.3211059570313	-183.2317657470703	1562.12060546875	255.1994018554688	-172.4827423095703	1569.258178710938	40.47778320312506	-255.7054595947266	1730.3740234375	40.81394577026371	-167.8243865966797	1779.76611328125	68.74877929687506	-253.0931854248047	1351.42236328125	952.0891113281251	-486.0026855468748	1380.64501953125	660.3596801757814	-462.5101318359373	1332.041381835938	689.6798095703126	-477.6095275878905	1299.111206054688	594.5443115234376	-442.0817871093749	1361.896484375	584.5222778320314	-436.2745666503905	1261.295043945312	327.3010253906251	-416.4792785644531	1201.27978515625	318.4011535644532	-418.7282714843749	1180.287109375	236.0154113769532	-397.5322265624999	1243.632934570312	229.3088989257813	-388.6355590820312	1101.867553710938	62.39662933349616	-317.2855529785156	1272.414794921875	21.00525474548348	-389.7438659667969	1312.322631835938	27.20521354675299	-284.6965637207031	
